<?xml version="1.0" encoding="UTF-8"?>
<svg version="1.1" xmlns="http://www.w3.org/2000/svg" width="512" height="512">
<path d="M0 0 C0.95261719 0.68191406 1.90523438 1.36382812 2.88671875 2.06640625 C21.18589522 15.43796135 37.51923919 30.76072035 51 49 C51.4223291 49.56154785 51.8446582 50.1230957 52.27978516 50.70166016 C75.51318569 81.64680025 89.75443974 117.72147549 95 156 C95.17200928 157.22203125 95.34401855 158.4440625 95.52124023 159.703125 C96.06039951 164.07325405 96.19499904 168.40093177 96.23828125 172.80078125 C96.24802979 173.62667252 96.25777832 174.45256378 96.26782227 175.30348206 C96.51122264 201.3057917 94.78983759 226.01140193 87 251 C86.75942871 251.7832666 86.51885742 252.5665332 86.27099609 253.37353516 C73.20972711 295.12759826 46.80100625 334.22999519 12 361 C11.46600586 361.41572266 10.93201172 361.83144531 10.38183594 362.25976562 C-19.25608804 385.21512843 -54.71823269 401.6661473 -92 407 C-93.14259277 407.17225098 -94.28518555 407.34450195 -95.46240234 407.52197266 C-105.95366109 408.98644544 -116.28881341 409.40189091 -126.875 409.375 C-128.14975189 409.37368576 -128.14975189 409.37368576 -129.45025635 409.37234497 C-160.02240197 409.26899062 -188.33463226 402.70490912 -216.359375 390.52734375 C-217.28782227 390.13973877 -218.21626953 389.75213379 -219.17285156 389.3527832 C-222 388 -222 388 -224.75683594 386.05932617 C-229.03952502 383.31892761 -232.36861211 381.59128318 -237.4420166 382.37930298 C-244.80469195 384.34576052 -251.75681749 387.45146589 -258.75 390.4375 C-261.03560004 391.3720878 -263.32323707 392.30170811 -265.61279297 393.2265625 C-270.36041138 395.14963118 -275.09765067 397.09561337 -279.82910156 399.05810547 C-290.12477188 403.30858107 -300.52704288 407.28133458 -310.92590332 411.27078247 C-315.99965 413.22031354 -321.06647843 415.18755249 -326.1328125 417.15625 C-326.98797455 417.4877858 -327.8431366 417.81932159 -328.72421265 418.16090393 C-332.06316675 419.45746827 -335.39959268 420.75481186 -338.71569824 422.10900879 C-339.60309692 422.4713562 -340.49049561 422.83370361 -341.40478516 423.20703125 C-342.20453766 423.53743408 -343.00429016 423.86783691 -343.82827759 424.20825195 C-349.70121946 426.34935904 -355.90049588 425.97476977 -361.5 423.375 C-365.87369484 419.2199899 -368.68605294 415.36410498 -369.15893555 409.16723633 C-368.49698515 400.14091734 -362.00670749 391.24555195 -357.6875 383.5625 C-356.97559879 382.28595489 -356.26426492 381.00909324 -355.5534668 379.73193359 C-354.09166569 377.10722019 -352.62670383 374.48431061 -351.15917969 371.86279297 C-349.11956328 368.21739744 -347.09323317 364.56484491 -345.0703125 360.91015625 C-338.04650547 348.22347837 -330.95833456 335.57483928 -323.8046875 322.9609375 C-323.33901367 322.12916992 -322.87333984 321.29740234 -322.39355469 320.44042969 C-321.4558718 318.79833471 -320.48688054 317.17376821 -319.48925781 315.56738281 C-316.69147843 310.99280528 -316.69147843 310.99280528 -315.98046875 305.76953125 C-317.10446049 302.71623569 -318.47593181 300.37580996 -320.3125 297.6875 C-350.76400089 250.39394948 -359.26040146 191.57780939 -348 137 C-338.39364185 94.89486517 -317.79892151 58.02353472 -288 27 C-287.1440625 26.1028125 -286.288125 25.205625 -285.40625 24.28125 C-279.63917803 18.3681762 -273.5587581 13.01607762 -267 8 C-266.35530762 7.5059668 -265.71061523 7.01193359 -265.04638672 6.50292969 C-254.21401324 -1.72336549 -243.10345013 -8.80124313 -231 -15 C-230.2570166 -15.38639648 -229.5140332 -15.77279297 -228.74853516 -16.17089844 C-157.90842327 -52.68515788 -64.75053034 -47.47077862 0 0 Z " fill="#0077CC" transform="translate(384,71)"/>
<path d="M0 0 C0.64186103 -0.00594224 1.28372206 -0.01188449 1.94503343 -0.0180068 C4.08192963 -0.03526005 6.21860015 -0.03838686 8.3555603 -0.04138184 C9.89361035 -0.05064695 11.43165583 -0.06069745 12.96969604 -0.07147217 C17.13943332 -0.09764377 21.3091063 -0.11059552 25.47891283 -0.11949348 C28.0885138 -0.12536851 30.69809746 -0.13358073 33.30768967 -0.14250183 C41.48545643 -0.16983423 49.66318331 -0.18917497 57.84099257 -0.19690561 C67.25680979 -0.20585727 76.67204492 -0.24091485 86.08768523 -0.2989068 C93.38136357 -0.34225776 100.67487886 -0.36232045 107.96868455 -0.36498785 C112.3175533 -0.367076 116.66587426 -0.37871827 121.01460648 -0.41462708 C125.11068358 -0.44779275 129.2058072 -0.4518034 133.30197144 -0.43434906 C134.79664048 -0.43281894 136.29136295 -0.44135256 137.78590012 -0.46126556 C150.00747521 -0.61441841 158.97765603 2.23968326 168.3609314 10.28088379 C170.09140015 12.68322754 170.09140015 12.68322754 171.5484314 15.21838379 C172.28126343 16.46941895 172.28126343 16.46941895 173.02890015 17.74572754 C175.52571484 22.4977297 176.60957147 26.04391636 176.5562439 31.45666504 C176.54657593 33.19206543 176.54657593 33.19206543 176.53671265 34.96252441 C176.51157593 36.7597998 176.51157593 36.7597998 176.4859314 38.59338379 C176.47690796 39.81090332 176.46788452 41.02842285 176.45858765 42.28283691 C176.43506177 45.28238653 176.40218792 48.28153423 176.3609314 51.28088379 C192.56350198 41.85078794 208.69860173 32.32435719 224.69784546 22.5526123 C226.36218628 21.53638794 226.36218628 21.53638794 228.06015015 20.49963379 C229.03814575 19.90086426 230.01614136 19.30209473 231.02377319 18.68518066 C235.58706116 15.94329908 239.08835749 15.79993955 244.3609314 16.28088379 C250.03569252 18.24522418 253.6749347 21.9088904 256.3609314 27.28088379 C256.46299224 28.66904334 256.50465414 30.06189671 256.51483154 31.45376587 C256.52343201 32.32844009 256.53203247 33.20311432 256.54089355 34.10429382 C256.54728348 35.54739677 256.54728348 35.54739677 256.55380249 37.01965332 C256.56197998 38.03121994 256.57015747 39.04278656 256.57858276 40.08500671 C256.6034659 43.44456384 256.61996239 46.80407856 256.6343689 50.16369629 C256.63969257 51.31029598 256.64501625 52.45689568 256.65050125 53.63824081 C256.67724852 59.70987022 256.69661634 65.78147897 256.71102905 71.85314941 C256.7276592 78.12119423 256.77241947 84.38871146 256.8234005 90.65655708 C256.85708438 95.47792148 256.86860795 100.29916101 256.87425613 105.12063217 C256.88096792 107.430663 256.89618795 109.74068563 256.92014694 112.05060196 C256.95181739 115.28941799 256.95183153 118.5268164 256.94442749 121.76574707 C256.96083282 122.71567032 256.97723816 123.66559357 256.99414062 124.64430237 C256.93518707 130.96307403 255.62413935 135.49001537 251.3609314 140.28088379 C247.1280806 143.3294217 243.14383051 144.91451294 237.81332397 144.79016113 C232.0589464 143.59517541 227.0602366 139.89861335 222.1109314 136.84338379 C220.84387832 136.07881639 219.57587669 135.31581894 218.30697632 134.55432129 C214.98900151 132.5573754 211.68421 130.53960067 208.3821106 128.51654053 C205.02921941 126.46673585 201.66536373 124.43509537 198.30233765 122.40197754 C192.42420204 118.84603154 186.55721822 115.27238257 180.6980896 111.68518066 C178.44794125 110.29217029 178.44794125 110.29217029 176.3609314 109.28088379 C176.38187866 109.98583984 176.40282593 110.6907959 176.42440796 111.41711426 C176.50841859 114.6632211 176.55985836 117.90909818 176.6109314 121.15588379 C176.64444702 122.26447754 176.67796265 123.37307129 176.7124939 124.51525879 C176.83745213 135.13670841 174.4376281 142.86248725 167.0718689 150.60119629 C157.62350802 159.87698437 147.83874649 160.87883638 135.0039978 160.8302002 C133.47520459 160.83891066 131.94642008 160.84928234 130.41764832 160.86117554 C126.29143366 160.88780452 122.16558705 160.88913003 118.0393033 160.88404894 C114.58281149 160.88189917 111.12639259 160.89170253 107.66991651 160.90125978 C99.50924805 160.92339789 91.34876374 160.92435448 83.18807983 160.91223145 C74.79566612 160.90015505 66.40392328 160.92477678 58.01162398 160.96737158 C50.78152747 161.00270553 43.55164352 161.01459039 36.32146394 161.0080961 C32.01405655 161.00448617 27.7071278 161.00958271 23.39979935 161.03752518 C19.34628724 161.06284067 15.29381417 161.05864817 11.24031639 161.0327034 C9.76179196 161.02800675 8.28319257 161.03331512 6.80475426 161.04994965 C-4.29185885 161.16569791 -13.02170999 159.07904427 -21.6390686 151.71838379 C-22.2990686 150.91400879 -22.9590686 150.10963379 -23.6390686 149.28088379 C-24.3196936 148.57963379 -25.0003186 147.87838379 -25.7015686 147.15588379 C-30.87550492 139.47842991 -32.23357217 131.3452417 -32.15664673 122.26086426 C-32.16365601 121.22032898 -32.17066528 120.1797937 -32.17788696 119.10772705 C-32.19534161 115.70422853 -32.18389019 112.30157669 -32.1703186 108.89807129 C-32.1730167 106.51396527 -32.17690175 104.12986033 -32.18191528 101.74575806 C-32.18779303 96.76468361 -32.17930121 91.78389725 -32.16055298 86.80285645 C-32.13774007 80.43316719 -32.15091297 74.06415133 -32.17484283 67.69448662 C-32.18932601 62.77697717 -32.18468359 57.8596263 -32.17433167 52.94211197 C-32.17167266 50.59387252 -32.1749049 48.24561845 -32.18424988 45.89739609 C-32.19445945 42.61191624 -32.17885271 39.32751425 -32.15664673 36.04211426 C-32.16474365 35.08187347 -32.17284058 34.12163269 -32.18118286 33.1322937 C-32.06083419 23.47388272 -28.30761756 15.27329163 -21.6390686 8.28088379 C-14.95438956 2.86833397 -8.6984135 0.04523457 0 0 Z " fill="#D6EDFD" transform="translate(143.63906860351563,175.7191162109375)"/>
</svg>
